<svg width="397" height="228" viewBox="0 0 397 228" fill="none" xmlns="http://www.w3.org/2000/svg">
<rect x="3" width="377" height="220" fill="white"/>
<g filter="url(#filter0_d_10_80)">
<rect x="114.5" y="94.5" width="125" height="37" rx="18.5" fill="white" stroke="black"/>
<path d="M160.75 117H158.057V108.273H160.869C161.716 108.273 162.44 108.447 163.043 108.797C163.645 109.143 164.107 109.642 164.428 110.293C164.749 110.94 164.909 111.716 164.909 112.619C164.909 113.528 164.747 114.311 164.423 114.967C164.099 115.621 163.628 116.124 163.009 116.476C162.389 116.825 161.636 117 160.75 117ZM159.114 116.062H160.682C161.403 116.062 162.001 115.923 162.476 115.645C162.95 115.366 163.304 114.97 163.537 114.456C163.77 113.942 163.886 113.33 163.886 112.619C163.886 111.915 163.771 111.308 163.541 110.8C163.311 110.288 162.967 109.896 162.51 109.624C162.053 109.348 161.483 109.21 160.801 109.21H159.114V116.062ZM169.29 117.136C168.659 117.136 168.115 116.997 167.658 116.719C167.203 116.438 166.852 116.045 166.605 115.543C166.361 115.037 166.239 114.449 166.239 113.778C166.239 113.108 166.361 112.517 166.605 112.006C166.852 111.491 167.196 111.091 167.636 110.804C168.08 110.514 168.597 110.369 169.188 110.369C169.528 110.369 169.865 110.426 170.197 110.54C170.53 110.653 170.832 110.838 171.105 111.094C171.378 111.347 171.595 111.682 171.757 112.099C171.919 112.517 172 113.031 172 113.642V114.068H166.955V113.199H170.977C170.977 112.83 170.903 112.5 170.756 112.21C170.611 111.92 170.403 111.692 170.134 111.524C169.866 111.357 169.551 111.273 169.188 111.273C168.787 111.273 168.44 111.372 168.148 111.571C167.858 111.767 167.635 112.023 167.479 112.338C167.322 112.653 167.244 112.991 167.244 113.352V113.932C167.244 114.426 167.33 114.845 167.5 115.189C167.673 115.53 167.913 115.79 168.22 115.969C168.527 116.145 168.884 116.233 169.29 116.233C169.554 116.233 169.793 116.196 170.006 116.122C170.222 116.045 170.408 115.932 170.564 115.781C170.72 115.628 170.841 115.437 170.926 115.21L171.898 115.483C171.795 115.812 171.624 116.102 171.382 116.352C171.141 116.599 170.842 116.793 170.487 116.932C170.132 117.068 169.733 117.136 169.29 117.136ZM174.536 108.273V117H173.53V108.273H174.536ZM177.383 113.062V117H176.377V108.273H177.383V111.477H177.468C177.622 111.139 177.852 110.871 178.159 110.672C178.468 110.47 178.88 110.369 179.395 110.369C179.841 110.369 180.231 110.459 180.566 110.638C180.902 110.814 181.162 111.085 181.346 111.452C181.534 111.815 181.627 112.278 181.627 112.841V117H180.622V112.909C180.622 112.389 180.487 111.987 180.217 111.703C179.95 111.416 179.579 111.273 179.105 111.273C178.775 111.273 178.48 111.342 178.218 111.482C177.96 111.621 177.755 111.824 177.605 112.091C177.457 112.358 177.383 112.682 177.383 113.062ZM183.467 117V110.455H184.473V117H183.467ZM183.979 109.364C183.783 109.364 183.614 109.297 183.472 109.163C183.332 109.03 183.263 108.869 183.263 108.682C183.263 108.494 183.332 108.334 183.472 108.2C183.614 108.067 183.783 108 183.979 108C184.175 108 184.342 108.067 184.482 108.2C184.624 108.334 184.695 108.494 184.695 108.682C184.695 108.869 184.624 109.03 184.482 109.163C184.342 109.297 184.175 109.364 183.979 109.364Z" fill="black"/>
<path d="M137.55 104C142.275 104 146.1 107.825 146.1 112.55C146.1 117.275 142.275 121.1 137.55 121.1C132.825 121.1 129 117.275 129 112.55C129 109.22 130.899 106.34 133.68 104.927M147 122L145.2 120.2" stroke="black" stroke-width="1.5" stroke-linecap="round" stroke-linejoin="round"/>
</g>
<g filter="url(#filter1_d_10_80)">
<rect x="254.5" y="43.5" width="125" height="37" rx="18.5" fill="white" stroke="black"/>
<path d="M297.58 58.2102V57.2727H304.125V58.2102H301.381V66H300.324V58.2102H297.58ZM307.33 66.1364C306.739 66.1364 306.22 65.9957 305.774 65.7145C305.331 65.4332 304.984 65.0398 304.734 64.5341C304.487 64.0284 304.364 63.4375 304.364 62.7614C304.364 62.0795 304.487 61.4844 304.734 60.9759C304.984 60.4673 305.331 60.0724 305.774 59.7912C306.22 59.5099 306.739 59.3693 307.33 59.3693C307.92 59.3693 308.438 59.5099 308.881 59.7912C309.327 60.0724 309.673 60.4673 309.92 60.9759C310.17 61.4844 310.295 62.0795 310.295 62.7614C310.295 63.4375 310.17 64.0284 309.92 64.5341C309.673 65.0398 309.327 65.4332 308.881 65.7145C308.438 65.9957 307.92 66.1364 307.33 66.1364ZM307.33 65.233C307.778 65.233 308.148 65.1179 308.438 64.8878C308.727 64.6577 308.942 64.3551 309.081 63.9801C309.22 63.6051 309.29 63.1989 309.29 62.7614C309.29 62.3239 309.22 61.9162 309.081 61.5384C308.942 61.1605 308.727 60.8551 308.438 60.6222C308.148 60.3892 307.778 60.2727 307.33 60.2727C306.881 60.2727 306.511 60.3892 306.222 60.6222C305.932 60.8551 305.717 61.1605 305.578 61.5384C305.439 61.9162 305.369 62.3239 305.369 62.7614C305.369 63.1989 305.439 63.6051 305.578 63.9801C305.717 64.3551 305.932 64.6577 306.222 64.8878C306.511 65.1179 306.881 65.233 307.33 65.233ZM312.768 63.6136L312.751 62.3693H312.956L315.819 59.4545H317.064L314.012 62.5398H313.927L312.768 63.6136ZM311.831 66V57.2727H312.836V66H311.831ZM315.99 66L313.433 62.7614L314.149 62.0625L317.268 66H315.99ZM319.006 68.4545C318.835 68.4545 318.683 68.4403 318.55 68.4119C318.416 68.3864 318.324 68.3608 318.273 68.3352L318.528 67.4489C318.773 67.5114 318.989 67.5341 319.176 67.517C319.364 67.5 319.53 67.4162 319.675 67.2656C319.822 67.1179 319.957 66.8778 320.08 66.5455L320.267 66.0341L317.847 59.4545H318.938L320.744 64.6705H320.812L322.619 59.4545H323.71L320.932 66.9545C320.807 67.2926 320.652 67.5724 320.467 67.794C320.283 68.0185 320.068 68.1847 319.824 68.2926C319.582 68.4006 319.31 68.4545 319.006 68.4545ZM327.462 66.1364C326.871 66.1364 326.353 65.9957 325.907 65.7145C325.464 65.4332 325.117 65.0398 324.867 64.5341C324.62 64.0284 324.496 63.4375 324.496 62.7614C324.496 62.0795 324.62 61.4844 324.867 60.9759C325.117 60.4673 325.464 60.0724 325.907 59.7912C326.353 59.5099 326.871 59.3693 327.462 59.3693C328.053 59.3693 328.57 59.5099 329.013 59.7912C329.46 60.0724 329.806 60.4673 330.053 60.9759C330.303 61.4844 330.428 62.0795 330.428 62.7614C330.428 63.4375 330.303 64.0284 330.053 64.5341C329.806 65.0398 329.46 65.4332 329.013 65.7145C328.57 65.9957 328.053 66.1364 327.462 66.1364ZM327.462 65.233C327.911 65.233 328.281 65.1179 328.57 64.8878C328.86 64.6577 329.075 64.3551 329.214 63.9801C329.353 63.6051 329.423 63.1989 329.423 62.7614C329.423 62.3239 329.353 61.9162 329.214 61.5384C329.075 61.1605 328.86 60.8551 328.57 60.6222C328.281 60.3892 327.911 60.2727 327.462 60.2727C327.013 60.2727 326.644 60.3892 326.354 60.6222C326.065 60.8551 325.85 61.1605 325.711 61.5384C325.572 61.9162 325.502 62.3239 325.502 62.7614C325.502 63.1989 325.572 63.6051 325.711 63.9801C325.85 64.3551 326.065 64.6577 326.354 64.8878C326.644 65.1179 327.013 65.233 327.462 65.233Z" fill="black"/>
<path d="M277.55 53C282.275 53 286.1 56.825 286.1 61.55C286.1 66.275 282.275 70.1 277.55 70.1C272.825 70.1 269 66.275 269 61.55C269 58.22 270.899 55.34 273.68 53.927M287 71L285.2 69.2" stroke="black" stroke-width="1.5" stroke-linecap="round" stroke-linejoin="round"/>
</g>
<g filter="url(#filter2_d_10_80)">
<rect x="236.5" y="135.5" width="125" height="37" rx="18.5" fill="white" stroke="black"/>
<path d="M280.057 158V149.273H281.114V157.062H285.17V158H280.057ZM289.33 158.136C288.739 158.136 288.22 157.996 287.774 157.714C287.331 157.433 286.984 157.04 286.734 156.534C286.487 156.028 286.364 155.437 286.364 154.761C286.364 154.08 286.487 153.484 286.734 152.976C286.984 152.467 287.331 152.072 287.774 151.791C288.22 151.51 288.739 151.369 289.33 151.369C289.92 151.369 290.438 151.51 290.881 151.791C291.327 152.072 291.673 152.467 291.92 152.976C292.17 153.484 292.295 154.08 292.295 154.761C292.295 155.437 292.17 156.028 291.92 156.534C291.673 157.04 291.327 157.433 290.881 157.714C290.438 157.996 289.92 158.136 289.33 158.136ZM289.33 157.233C289.778 157.233 290.148 157.118 290.438 156.888C290.727 156.658 290.942 156.355 291.081 155.98C291.22 155.605 291.29 155.199 291.29 154.761C291.29 154.324 291.22 153.916 291.081 153.538C290.942 153.161 290.727 152.855 290.438 152.622C290.148 152.389 289.778 152.273 289.33 152.273C288.881 152.273 288.511 152.389 288.222 152.622C287.932 152.855 287.717 153.161 287.578 153.538C287.439 153.916 287.369 154.324 287.369 154.761C287.369 155.199 287.439 155.605 287.578 155.98C287.717 156.355 287.932 156.658 288.222 156.888C288.511 157.118 288.881 157.233 289.33 157.233ZM294.836 154.062V158H293.831V151.455H294.802V152.477H294.887C295.041 152.145 295.274 151.878 295.586 151.676C295.899 151.472 296.302 151.369 296.797 151.369C297.24 151.369 297.627 151.46 297.96 151.642C298.292 151.821 298.551 152.094 298.735 152.46C298.92 152.824 299.012 153.284 299.012 153.841V158H298.007V153.909C298.007 153.395 297.873 152.994 297.606 152.707C297.339 152.418 296.973 152.273 296.507 152.273C296.186 152.273 295.899 152.342 295.646 152.482C295.396 152.621 295.199 152.824 295.054 153.091C294.909 153.358 294.836 153.682 294.836 154.062ZM303.322 158.136C302.776 158.136 302.295 157.999 301.877 157.723C301.46 157.445 301.133 157.053 300.897 156.547C300.661 156.038 300.543 155.438 300.543 154.744C300.543 154.057 300.661 153.46 300.897 152.955C301.133 152.449 301.461 152.058 301.881 151.783C302.302 151.507 302.788 151.369 303.339 151.369C303.765 151.369 304.102 151.44 304.349 151.582C304.599 151.722 304.789 151.881 304.92 152.06C305.053 152.236 305.157 152.381 305.231 152.494H305.316V149.273H306.322V158H305.35V156.994H305.231C305.157 157.114 305.052 157.264 304.915 157.446C304.779 157.625 304.585 157.786 304.332 157.928C304.079 158.067 303.742 158.136 303.322 158.136ZM303.458 157.233C303.862 157.233 304.202 157.128 304.481 156.918C304.759 156.705 304.971 156.411 305.116 156.036C305.261 155.658 305.333 155.222 305.333 154.727C305.333 154.239 305.262 153.811 305.12 153.445C304.978 153.075 304.768 152.788 304.489 152.584C304.211 152.376 303.867 152.273 303.458 152.273C303.032 152.273 302.677 152.382 302.393 152.601C302.112 152.817 301.9 153.111 301.758 153.483C301.619 153.852 301.549 154.267 301.549 154.727C301.549 155.193 301.62 155.616 301.762 155.997C301.907 156.375 302.12 156.676 302.401 156.901C302.685 157.122 303.038 157.233 303.458 157.233ZM310.962 158.136C310.371 158.136 309.853 157.996 309.407 157.714C308.964 157.433 308.617 157.04 308.367 156.534C308.12 156.028 307.996 155.437 307.996 154.761C307.996 154.08 308.12 153.484 308.367 152.976C308.617 152.467 308.964 152.072 309.407 151.791C309.853 151.51 310.371 151.369 310.962 151.369C311.553 151.369 312.07 151.51 312.513 151.791C312.96 152.072 313.306 152.467 313.553 152.976C313.803 153.484 313.928 154.08 313.928 154.761C313.928 155.437 313.803 156.028 313.553 156.534C313.306 157.04 312.96 157.433 312.513 157.714C312.07 157.996 311.553 158.136 310.962 158.136ZM310.962 157.233C311.411 157.233 311.781 157.118 312.07 156.888C312.36 156.658 312.575 156.355 312.714 155.98C312.853 155.605 312.923 155.199 312.923 154.761C312.923 154.324 312.853 153.916 312.714 153.538C312.575 153.161 312.36 152.855 312.07 152.622C311.781 152.389 311.411 152.273 310.962 152.273C310.513 152.273 310.144 152.389 309.854 152.622C309.565 152.855 309.35 153.161 309.211 153.538C309.072 153.916 309.002 154.324 309.002 154.761C309.002 155.199 309.072 155.605 309.211 155.98C309.35 156.355 309.565 156.658 309.854 156.888C310.144 157.118 310.513 157.233 310.962 157.233ZM316.469 154.062V158H315.463V151.455H316.435V152.477H316.52C316.674 152.145 316.907 151.878 317.219 151.676C317.532 151.472 317.935 151.369 318.429 151.369C318.873 151.369 319.26 151.46 319.593 151.642C319.925 151.821 320.184 152.094 320.368 152.46C320.553 152.824 320.645 153.284 320.645 153.841V158H319.64V153.909C319.64 153.395 319.506 152.994 319.239 152.707C318.972 152.418 318.605 152.273 318.14 152.273C317.819 152.273 317.532 152.342 317.279 152.482C317.029 152.621 316.831 152.824 316.686 153.091C316.542 153.358 316.469 153.682 316.469 154.062Z" fill="black"/>
<path d="M259.55 145C264.275 145 268.1 148.825 268.1 153.55C268.1 158.275 264.275 162.1 259.55 162.1C254.825 162.1 251 158.275 251 153.55C251 150.22 252.899 147.34 255.68 145.927M269 163L267.2 161.2" stroke="black" stroke-width="1.5" stroke-linecap="round" stroke-linejoin="round"/>
</g>
<g filter="url(#filter3_d_10_80)">
<rect x="33.5" y="154.5" width="125" height="37" rx="18.5" fill="white" stroke="black"/>
<path d="M77.0568 177V168.273H80.108C80.7159 168.273 81.2173 168.378 81.6122 168.588C82.0071 168.795 82.3011 169.075 82.4943 169.428C82.6875 169.777 82.7841 170.165 82.7841 170.591C82.7841 170.966 82.7173 171.276 82.5838 171.52C82.4531 171.764 82.2798 171.957 82.0639 172.099C81.8509 172.241 81.6193 172.347 81.3693 172.415V172.5C81.6364 172.517 81.9048 172.611 82.1747 172.781C82.4446 172.952 82.6705 173.196 82.8523 173.514C83.0341 173.832 83.125 174.222 83.125 174.682C83.125 175.119 83.0256 175.513 82.8267 175.862C82.6278 176.212 82.3139 176.489 81.8849 176.693C81.456 176.898 80.8977 177 80.2102 177H77.0568ZM78.1136 176.062H80.2102C80.9006 176.062 81.3906 175.929 81.6804 175.662C81.973 175.392 82.1193 175.065 82.1193 174.682C82.1193 174.386 82.044 174.114 81.8935 173.864C81.7429 173.611 81.5284 173.409 81.25 173.259C80.9716 173.105 80.642 173.028 80.2614 173.028H78.1136V176.062ZM78.1136 172.108H80.0739C80.392 172.108 80.679 172.045 80.9347 171.92C81.1932 171.795 81.3977 171.619 81.5483 171.392C81.7017 171.165 81.7784 170.898 81.7784 170.591C81.7784 170.207 81.6449 169.882 81.3778 169.615C81.1108 169.345 80.6875 169.21 80.108 169.21H78.1136V172.108ZM86.6513 177.153C86.2365 177.153 85.8601 177.075 85.522 176.919C85.1839 176.76 84.9155 176.531 84.7166 176.233C84.5178 175.932 84.4183 175.568 84.4183 175.142C84.4183 174.767 84.4922 174.463 84.6399 174.23C84.7876 173.994 84.9851 173.81 85.2322 173.676C85.4794 173.543 85.7521 173.443 86.0504 173.378C86.3516 173.31 86.6541 173.256 86.9581 173.216C87.3558 173.165 87.6783 173.126 87.9254 173.101C88.1754 173.072 88.3572 173.026 88.4709 172.96C88.5874 172.895 88.6456 172.781 88.6456 172.619V172.585C88.6456 172.165 88.5305 171.838 88.3004 171.605C88.0732 171.372 87.728 171.256 87.2649 171.256C86.7848 171.256 86.4084 171.361 86.1357 171.571C85.8629 171.781 85.6712 172.006 85.5604 172.244L84.6058 171.903C84.7763 171.506 85.0036 171.196 85.2876 170.974C85.5746 170.75 85.8871 170.594 86.2251 170.506C86.5661 170.415 86.9013 170.369 87.2308 170.369C87.4411 170.369 87.6825 170.395 87.9553 170.446C88.2308 170.494 88.4964 170.595 88.7521 170.749C89.0107 170.902 89.2251 171.134 89.3956 171.443C89.5661 171.753 89.6513 172.168 89.6513 172.688V177H88.6456V176.114H88.5945C88.5263 176.256 88.4126 176.408 88.2536 176.57C88.0945 176.732 87.8828 176.869 87.6186 176.983C87.3544 177.097 87.032 177.153 86.6513 177.153ZM86.8047 176.25C87.2024 176.25 87.5376 176.172 87.8104 176.016C88.0859 175.859 88.2933 175.658 88.4325 175.411C88.5746 175.163 88.6456 174.903 88.6456 174.631V173.71C88.603 173.761 88.5092 173.808 88.3643 173.851C88.2223 173.891 88.0575 173.926 87.87 173.957C87.6854 173.986 87.505 174.011 87.3288 174.034C87.1555 174.054 87.0149 174.071 86.907 174.085C86.6456 174.119 86.4013 174.175 86.174 174.251C85.9496 174.325 85.7678 174.437 85.6286 174.588C85.4922 174.736 85.424 174.937 85.424 175.193C85.424 175.543 85.5533 175.807 85.8118 175.986C86.0732 176.162 86.4041 176.25 86.8047 176.25ZM92.4925 173.062V177H91.4869V170.455H92.4585V171.477H92.5437C92.6971 171.145 92.93 170.878 93.2425 170.676C93.555 170.472 93.9585 170.369 94.4528 170.369C94.896 170.369 95.2837 170.46 95.6161 170.642C95.9485 170.821 96.207 171.094 96.3917 171.46C96.5763 171.824 96.6687 172.284 96.6687 172.841V177H95.663V172.909C95.663 172.395 95.5295 171.994 95.2624 171.707C94.9954 171.418 94.6289 171.273 94.163 171.273C93.842 171.273 93.555 171.342 93.3022 171.482C93.0522 171.621 92.8548 171.824 92.7099 172.091C92.565 172.358 92.4925 172.682 92.4925 173.062ZM101.148 179.591C100.663 179.591 100.245 179.528 99.8956 179.403C99.5462 179.281 99.255 179.119 99.022 178.918C98.7919 178.719 98.6087 178.506 98.4723 178.278L99.2734 177.716C99.3643 177.835 99.4794 177.972 99.6186 178.125C99.7578 178.281 99.9482 178.416 100.19 178.53C100.434 178.646 100.754 178.705 101.148 178.705C101.677 178.705 102.113 178.577 102.457 178.321C102.8 178.065 102.972 177.665 102.972 177.119V175.79H102.887C102.813 175.909 102.708 176.057 102.572 176.233C102.438 176.406 102.245 176.561 101.992 176.697C101.742 176.831 101.404 176.898 100.978 176.898C100.45 176.898 99.9751 176.773 99.5547 176.523C99.1371 176.273 98.8061 175.909 98.5618 175.432C98.3203 174.955 98.1996 174.375 98.1996 173.693C98.1996 173.023 98.3175 172.439 98.5533 171.942C98.7891 171.442 99.1172 171.055 99.5376 170.783C99.9581 170.507 100.444 170.369 100.995 170.369C101.421 170.369 101.759 170.44 102.009 170.582C102.262 170.722 102.455 170.881 102.589 171.06C102.725 171.236 102.83 171.381 102.904 171.494H103.006V170.455H103.978V177.188C103.978 177.75 103.85 178.207 103.594 178.56C103.342 178.915 103.001 179.175 102.572 179.339C102.146 179.507 101.671 179.591 101.148 179.591ZM101.114 175.994C101.518 175.994 101.859 175.902 102.137 175.717C102.415 175.533 102.627 175.267 102.772 174.92C102.917 174.574 102.989 174.159 102.989 173.676C102.989 173.205 102.918 172.788 102.776 172.428C102.634 172.067 102.424 171.784 102.146 171.58C101.867 171.375 101.523 171.273 101.114 171.273C100.688 171.273 100.333 171.381 100.049 171.597C99.7678 171.812 99.5561 172.102 99.4141 172.466C99.2749 172.83 99.2053 173.233 99.2053 173.676C99.2053 174.131 99.2763 174.533 99.4183 174.882C99.5632 175.229 99.7763 175.501 100.058 175.7C100.342 175.896 100.694 175.994 101.114 175.994ZM107.745 177.153C107.33 177.153 106.954 177.075 106.616 176.919C106.278 176.76 106.009 176.531 105.81 176.233C105.612 175.932 105.512 175.568 105.512 175.142C105.512 174.767 105.586 174.463 105.734 174.23C105.881 173.994 106.079 173.81 106.326 173.676C106.573 173.543 106.846 173.443 107.144 173.378C107.445 173.31 107.748 173.256 108.052 173.216C108.45 173.165 108.772 173.126 109.019 173.101C109.269 173.072 109.451 173.026 109.565 172.96C109.681 172.895 109.739 172.781 109.739 172.619V172.585C109.739 172.165 109.624 171.838 109.394 171.605C109.167 171.372 108.822 171.256 108.359 171.256C107.879 171.256 107.502 171.361 107.229 171.571C106.957 171.781 106.765 172.006 106.654 172.244L105.7 171.903C105.87 171.506 106.097 171.196 106.381 170.974C106.668 170.75 106.981 170.594 107.319 170.506C107.66 170.415 107.995 170.369 108.325 170.369C108.535 170.369 108.776 170.395 109.049 170.446C109.325 170.494 109.59 170.595 109.846 170.749C110.104 170.902 110.319 171.134 110.489 171.443C110.66 171.753 110.745 172.168 110.745 172.688V177H109.739V176.114H109.688C109.62 176.256 109.506 176.408 109.347 176.57C109.188 176.732 108.977 176.869 108.712 176.983C108.448 177.097 108.126 177.153 107.745 177.153ZM107.898 176.25C108.296 176.25 108.631 176.172 108.904 176.016C109.18 175.859 109.387 175.658 109.526 175.411C109.668 175.163 109.739 174.903 109.739 174.631V173.71C109.697 173.761 109.603 173.808 109.458 173.851C109.316 173.891 109.151 173.926 108.964 173.957C108.779 173.986 108.599 174.011 108.423 174.034C108.249 174.054 108.109 174.071 108.001 174.085C107.739 174.119 107.495 174.175 107.268 174.251C107.043 174.325 106.862 174.437 106.722 174.588C106.586 174.736 106.518 174.937 106.518 175.193C106.518 175.543 106.647 175.807 106.906 175.986C107.167 176.162 107.498 176.25 107.898 176.25ZM113.586 168.273V177H112.581V168.273H113.586ZM118.087 177.136C117.496 177.136 116.978 176.996 116.532 176.714C116.089 176.433 115.742 176.04 115.492 175.534C115.245 175.028 115.121 174.437 115.121 173.761C115.121 173.08 115.245 172.484 115.492 171.976C115.742 171.467 116.089 171.072 116.532 170.791C116.978 170.51 117.496 170.369 118.087 170.369C118.678 170.369 119.195 170.51 119.638 170.791C120.085 171.072 120.431 171.467 120.678 171.976C120.928 172.484 121.053 173.08 121.053 173.761C121.053 174.437 120.928 175.028 120.678 175.534C120.431 176.04 120.085 176.433 119.638 176.714C119.195 176.996 118.678 177.136 118.087 177.136ZM118.087 176.233C118.536 176.233 118.906 176.118 119.195 175.888C119.485 175.658 119.7 175.355 119.839 174.98C119.978 174.605 120.048 174.199 120.048 173.761C120.048 173.324 119.978 172.916 119.839 172.538C119.7 172.161 119.485 171.855 119.195 171.622C118.906 171.389 118.536 171.273 118.087 171.273C117.638 171.273 117.269 171.389 116.979 171.622C116.69 171.855 116.475 172.161 116.336 172.538C116.197 172.916 116.127 173.324 116.127 173.761C116.127 174.199 116.197 174.605 116.336 174.98C116.475 175.355 116.69 175.658 116.979 175.888C117.269 176.118 117.638 176.233 118.087 176.233ZM122.588 177V170.455H123.56V171.443H123.628C123.748 171.119 123.963 170.857 124.276 170.655C124.588 170.453 124.941 170.352 125.333 170.352C125.407 170.352 125.499 170.354 125.61 170.357C125.721 170.359 125.804 170.364 125.861 170.369V171.392C125.827 171.384 125.749 171.371 125.627 171.354C125.507 171.334 125.381 171.324 125.248 171.324C124.929 171.324 124.645 171.391 124.395 171.524C124.148 171.655 123.952 171.837 123.807 172.07C123.665 172.3 123.594 172.562 123.594 172.858V177H122.588ZM129.598 177.136C128.968 177.136 128.424 176.997 127.966 176.719C127.512 176.438 127.161 176.045 126.914 175.543C126.669 175.037 126.547 174.449 126.547 173.778C126.547 173.108 126.669 172.517 126.914 172.006C127.161 171.491 127.505 171.091 127.945 170.804C128.388 170.514 128.905 170.369 129.496 170.369C129.837 170.369 130.174 170.426 130.506 170.54C130.838 170.653 131.141 170.838 131.414 171.094C131.686 171.347 131.904 171.682 132.066 172.099C132.228 172.517 132.309 173.031 132.309 173.642V174.068H127.263V173.199H131.286C131.286 172.83 131.212 172.5 131.064 172.21C130.919 171.92 130.712 171.692 130.442 171.524C130.175 171.357 129.86 171.273 129.496 171.273C129.096 171.273 128.749 171.372 128.456 171.571C128.167 171.767 127.944 172.023 127.787 172.338C127.631 172.653 127.553 172.991 127.553 173.352V173.932C127.553 174.426 127.638 174.845 127.809 175.189C127.982 175.53 128.222 175.79 128.529 175.969C128.836 176.145 129.192 176.233 129.598 176.233C129.863 176.233 130.101 176.196 130.314 176.122C130.53 176.045 130.716 175.932 130.873 175.781C131.029 175.628 131.15 175.437 131.235 175.21L132.206 175.483C132.104 175.812 131.932 176.102 131.691 176.352C131.449 176.599 131.151 176.793 130.796 176.932C130.441 177.068 130.042 177.136 129.598 177.136Z" fill="black"/>
<path d="M56.55 164C61.275 164 65.1 167.825 65.1 172.55C65.1 177.275 61.275 181.1 56.55 181.1C51.825 181.1 48 177.275 48 172.55C48 169.22 49.899 166.34 52.68 164.927M66 182L64.2 180.2" stroke="black" stroke-width="1.5" stroke-linecap="round" stroke-linejoin="round"/>
</g>
<g filter="url(#filter4_d_10_80)">
<rect x="3.5" y="34.5" width="125" height="37" rx="18.5" fill="white" stroke="black"/>
<path d="M53.9773 48.2727V57H52.9545L48.1989 50.1477H48.1136V57H47.0568V48.2727H48.0795L52.8523 55.142H52.9375V48.2727H53.9773ZM58.6999 57.1364C58.0692 57.1364 57.5252 56.9972 57.0678 56.7188C56.6133 56.4375 56.2624 56.0455 56.0153 55.5426C55.771 55.0369 55.6488 54.4489 55.6488 53.7784C55.6488 53.108 55.771 52.517 56.0153 52.0057C56.2624 51.4915 56.6062 51.0909 57.0465 50.804C57.4897 50.5142 58.0067 50.3693 58.5977 50.3693C58.9386 50.3693 59.2752 50.4261 59.6076 50.5398C59.94 50.6534 60.2425 50.8381 60.5153 51.0938C60.788 51.3466 61.0053 51.6818 61.1673 52.0994C61.3292 52.517 61.4102 53.0312 61.4102 53.642V54.0682H56.3647V53.1989H60.3874C60.3874 52.8295 60.3136 52.5 60.1658 52.2102C60.021 51.9205 59.8136 51.6918 59.5437 51.5241C59.2766 51.3565 58.9613 51.2727 58.5977 51.2727C58.1971 51.2727 57.8505 51.3722 57.5579 51.571C57.2681 51.767 57.0451 52.0227 56.8888 52.3381C56.7326 52.6534 56.6545 52.9915 56.6545 53.3523V53.9318C56.6545 54.4261 56.7397 54.8452 56.9102 55.1889C57.0835 55.5298 57.3235 55.7898 57.6303 55.9688C57.9371 56.1449 58.2937 56.233 58.6999 56.233C58.9641 56.233 59.2028 56.196 59.4158 56.1222C59.6317 56.0455 59.8178 55.9318 59.9741 55.7812C60.1303 55.6278 60.2511 55.4375 60.3363 55.2102L61.3079 55.483C61.2056 55.8125 61.0337 56.1023 60.7923 56.3523C60.5508 56.5994 60.2525 56.7926 59.8974 56.9318C59.5423 57.0682 59.1431 57.1364 58.6999 57.1364ZM64.4229 57L62.4286 50.4545H63.4854L64.9002 55.4659H64.9684L66.3661 50.4545H67.44L68.8207 55.4489H68.8888L70.3036 50.4545H71.3604L69.3661 57H68.3775L66.9457 51.9716H66.8434L65.4116 57H64.4229ZM75.4513 48.2727H76.6616L79.082 52.3466H79.1843L81.6048 48.2727H82.815L79.6616 53.4034V57H78.6048V53.4034L75.4513 48.2727ZM85.7788 57.1364C85.1879 57.1364 84.6694 56.9957 84.2234 56.7145C83.7802 56.4332 83.4336 56.0398 83.1836 55.5341C82.9364 55.0284 82.8129 54.4375 82.8129 53.7614C82.8129 53.0795 82.9364 52.4844 83.1836 51.9759C83.4336 51.4673 83.7802 51.0724 84.2234 50.7912C84.6694 50.5099 85.1879 50.3693 85.7788 50.3693C86.3697 50.3693 86.8867 50.5099 87.3299 50.7912C87.7759 51.0724 88.1225 51.4673 88.3697 51.9759C88.6197 52.4844 88.7447 53.0795 88.7447 53.7614C88.7447 54.4375 88.6197 55.0284 88.3697 55.5341C88.1225 56.0398 87.7759 56.4332 87.3299 56.7145C86.8867 56.9957 86.3697 57.1364 85.7788 57.1364ZM85.7788 56.233C86.2276 56.233 86.5969 56.1179 86.8867 55.8878C87.1765 55.6577 87.391 55.3551 87.5302 54.9801C87.6694 54.6051 87.739 54.1989 87.739 53.7614C87.739 53.3239 87.6694 52.9162 87.5302 52.5384C87.391 52.1605 87.1765 51.8551 86.8867 51.6222C86.5969 51.3892 86.2276 51.2727 85.7788 51.2727C85.3299 51.2727 84.9606 51.3892 84.6708 51.6222C84.381 51.8551 84.1665 52.1605 84.0273 52.5384C83.8881 52.9162 83.8185 53.3239 83.8185 53.7614C83.8185 54.1989 83.8881 54.6051 84.0273 54.9801C84.1665 55.3551 84.381 55.6577 84.6708 55.8878C84.9606 56.1179 85.3299 56.233 85.7788 56.233ZM90.2798 57V50.4545H91.2514V51.4432H91.3196C91.4389 51.1193 91.6548 50.8565 91.9673 50.6548C92.2798 50.4531 92.6321 50.3523 93.0241 50.3523C93.098 50.3523 93.1903 50.3537 93.3011 50.3565C93.4119 50.3594 93.4957 50.3636 93.5526 50.3693V51.392C93.5185 51.3835 93.4403 51.3707 93.3182 51.3537C93.1989 51.3338 93.0724 51.3239 92.9389 51.3239C92.6207 51.3239 92.3366 51.3906 92.0866 51.5241C91.8395 51.6548 91.6435 51.8366 91.4986 52.0696C91.3565 52.2997 91.2855 52.5625 91.2855 52.858V57H90.2798ZM95.6822 54.6136L95.6651 53.3693H95.8697L98.7333 50.4545H99.9776L96.9265 53.5398H96.8413L95.6822 54.6136ZM94.7447 57V48.2727H95.7504V57H94.7447ZM98.9038 57L96.3469 53.7614L97.0629 53.0625L100.182 57H98.9038Z" fill="black"/>
<path d="M26.55 44C31.275 44 35.1 47.825 35.1 52.55C35.1 57.275 31.275 61.1 26.55 61.1C21.825 61.1 18 57.275 18 52.55C18 49.22 19.899 46.34 22.68 44.927M36 62L34.2 60.2" stroke="black" stroke-width="1.5" stroke-linecap="round" stroke-linejoin="round"/>
</g>
<g filter="url(#filter5_d_10_80)">
<circle cx="41" cy="120" r="15.5" fill="#A9A8A8" stroke="black"/>
<path d="M36.733 119H35.8523C35.8002 118.747 35.709 118.524 35.5788 118.332C35.451 118.141 35.2947 117.98 35.1101 117.849C34.9278 117.717 34.7254 117.617 34.5028 117.551C34.2803 117.485 34.0483 117.452 33.8068 117.452C33.3665 117.452 32.9676 117.563 32.6101 117.786C32.255 118.008 31.9721 118.336 31.7614 118.769C31.553 119.202 31.4489 119.734 31.4489 120.364C31.4489 120.993 31.553 121.525 31.7614 121.958C31.9721 122.391 32.255 122.719 32.6101 122.942C32.9676 123.164 33.3665 123.276 33.8068 123.276C34.0483 123.276 34.2803 123.242 34.5028 123.176C34.7254 123.11 34.9278 123.012 35.1101 122.881C35.2947 122.749 35.451 122.587 35.5788 122.395C35.709 122.201 35.8002 121.978 35.8523 121.727H36.733C36.6667 122.099 36.5459 122.432 36.3707 122.725C36.1955 123.019 35.9777 123.268 35.7173 123.474C35.4569 123.678 35.1645 123.833 34.8402 123.94C34.5182 124.046 34.1738 124.099 33.8068 124.099C33.1866 124.099 32.6349 123.948 32.152 123.645C31.669 123.342 31.2891 122.911 31.0121 122.352C30.7351 121.794 30.5966 121.131 30.5966 120.364C30.5966 119.597 30.7351 118.934 31.0121 118.375C31.2891 117.816 31.669 117.385 32.152 117.082C32.6349 116.779 33.1866 116.628 33.8068 116.628C34.1738 116.628 34.5182 116.681 34.8402 116.788C35.1645 116.894 35.4569 117.05 35.7173 117.256C35.9777 117.46 36.1955 117.709 36.3707 118.002C36.5459 118.293 36.6667 118.626 36.733 119ZM44.2924 120.364C44.2924 121.131 44.1539 121.794 43.877 122.352C43.6 122.911 43.22 123.342 42.737 123.645C42.2541 123.948 41.7025 124.099 41.0822 124.099C40.4619 124.099 39.9103 123.948 39.4274 123.645C38.9444 123.342 38.5645 122.911 38.2875 122.352C38.0105 121.794 37.872 121.131 37.872 120.364C37.872 119.597 38.0105 118.934 38.2875 118.375C38.5645 117.816 38.9444 117.385 39.4274 117.082C39.9103 116.779 40.4619 116.628 41.0822 116.628C41.7025 116.628 42.2541 116.779 42.737 117.082C43.22 117.385 43.6 117.816 43.877 118.375C44.1539 118.934 44.2924 119.597 44.2924 120.364ZM43.4402 120.364C43.4402 119.734 43.3348 119.202 43.1241 118.769C42.9158 118.336 42.6329 118.008 42.2754 117.786C41.9203 117.563 41.5225 117.452 41.0822 117.452C40.6419 117.452 40.243 117.563 39.8855 117.786C39.5304 118.008 39.2475 118.336 39.0368 118.769C38.8284 119.202 38.7243 119.734 38.7243 120.364C38.7243 120.993 38.8284 121.525 39.0368 121.958C39.2475 122.391 39.5304 122.719 39.8855 122.942C40.243 123.164 40.6419 123.276 41.0822 123.276C41.5225 123.276 41.9203 123.164 42.2754 122.942C42.6329 122.719 42.9158 122.391 43.1241 121.958C43.3348 121.525 43.4402 120.993 43.4402 120.364ZM45.6454 124V123.361L48.046 120.733C48.3277 120.425 48.5597 120.158 48.742 119.93C48.9243 119.701 49.0592 119.485 49.1468 119.284C49.2368 119.08 49.2818 118.867 49.2818 118.645C49.2818 118.389 49.2202 118.168 49.0971 117.981C48.9764 117.794 48.8107 117.649 48.6 117.548C48.3893 117.446 48.1525 117.395 47.8897 117.395C47.6104 117.395 47.3665 117.453 47.1582 117.569C46.9522 117.683 46.7924 117.842 46.6788 118.048C46.5675 118.254 46.5119 118.496 46.5119 118.773H45.6738C45.6738 118.347 45.7721 117.973 45.9686 117.651C46.1651 117.329 46.4326 117.078 46.7711 116.898C47.112 116.718 47.4944 116.628 47.9181 116.628C48.3443 116.628 48.7219 116.718 49.051 116.898C49.38 117.078 49.6381 117.32 49.8251 117.626C50.0121 117.931 50.1056 118.271 50.1056 118.645C50.1056 118.912 50.0571 119.174 49.96 119.43C49.8654 119.683 49.6996 119.966 49.4629 120.278C49.2285 120.589 48.903 120.967 48.4863 121.415L46.8528 123.162V123.219H50.2335V124H45.6454Z" fill="black"/>
</g>
<g filter="url(#filter6_d_10_80)">
<circle cx="160" cy="23" r="15.5" fill="#FFBA9C" stroke="black"/>
<path d="M155.648 19.7273V27H154.795L150.832 21.2898H150.761V27H149.881V19.7273H150.733L154.71 25.4517H154.781V19.7273H155.648ZM163.546 23.3636C163.546 24.1307 163.408 24.7936 163.131 25.3523C162.854 25.911 162.474 26.3419 161.991 26.6449C161.508 26.9479 160.956 27.0994 160.336 27.0994C159.716 27.0994 159.164 26.9479 158.681 26.6449C158.198 26.3419 157.818 25.911 157.541 25.3523C157.264 24.7936 157.126 24.1307 157.126 23.3636C157.126 22.5966 157.264 21.9337 157.541 21.375C157.818 20.8163 158.198 20.3854 158.681 20.0824C159.164 19.7794 159.716 19.6278 160.336 19.6278C160.956 19.6278 161.508 19.7794 161.991 20.0824C162.474 20.3854 162.854 20.8163 163.131 21.375C163.408 21.9337 163.546 22.5966 163.546 23.3636ZM162.694 23.3636C162.694 22.7339 162.589 22.2024 162.378 21.7692C162.17 21.3359 161.887 21.008 161.529 20.7855C161.174 20.563 160.776 20.4517 160.336 20.4517C159.896 20.4517 159.497 20.563 159.139 20.7855C158.784 21.008 158.501 21.3359 158.291 21.7692C158.082 22.2024 157.978 22.7339 157.978 23.3636C157.978 23.9934 158.082 24.5249 158.291 24.9581C158.501 25.3913 158.784 25.7192 159.139 25.9418C159.497 26.1643 159.896 26.2756 160.336 26.2756C160.776 26.2756 161.174 26.1643 161.529 25.9418C161.887 25.7192 162.17 25.3913 162.378 24.9581C162.589 24.5249 162.694 23.9934 162.694 23.3636ZM164.899 27V26.3608L167.3 23.733C167.582 23.4252 167.814 23.1577 167.996 22.9304C168.178 22.7008 168.313 22.4853 168.401 22.2841C168.491 22.0805 168.536 21.8674 168.536 21.6449C168.536 21.3892 168.474 21.1679 168.351 20.9808C168.23 20.7938 168.065 20.6494 167.854 20.5476C167.643 20.4458 167.406 20.3949 167.144 20.3949C166.864 20.3949 166.62 20.4529 166.412 20.5689C166.206 20.6825 166.046 20.8423 165.933 21.0483C165.821 21.2543 165.766 21.4957 165.766 21.7727H164.928C164.928 21.3466 165.026 20.9725 165.222 20.6506C165.419 20.3286 165.686 20.0777 166.025 19.8977C166.366 19.7178 166.748 19.6278 167.172 19.6278C167.598 19.6278 167.976 19.7178 168.305 19.8977C168.634 20.0777 168.892 20.3203 169.079 20.6257C169.266 20.9311 169.36 21.2708 169.36 21.6449C169.36 21.9124 169.311 22.174 169.214 22.4297C169.119 22.683 168.954 22.9659 168.717 23.2784C168.482 23.5885 168.157 23.9673 167.74 24.4148L166.107 26.1619V26.2188H169.487V27H164.899Z" fill="black"/>
</g>
<g filter="url(#filter7_d_10_80)">
<circle cx="256" cy="17" r="15.5" fill="#FEF5C6" stroke="black"/>
<path d="M249.858 15.5455C249.815 15.1856 249.643 14.9062 249.339 14.7074C249.036 14.5085 248.665 14.4091 248.224 14.4091C247.902 14.4091 247.621 14.4612 247.379 14.5653C247.14 14.6695 246.953 14.8127 246.818 14.995C246.686 15.1773 246.619 15.3845 246.619 15.6165C246.619 15.8106 246.665 15.9775 246.758 16.1172C246.853 16.2545 246.973 16.3693 247.12 16.4616C247.267 16.5516 247.421 16.6262 247.582 16.6854C247.743 16.7422 247.891 16.7884 248.026 16.8239L248.764 17.0227C248.954 17.0724 249.164 17.1411 249.396 17.2287C249.631 17.3163 249.854 17.4358 250.067 17.5874C250.283 17.7365 250.46 17.9283 250.6 18.1626C250.74 18.397 250.81 18.6847 250.81 19.0256C250.81 19.4186 250.707 19.7737 250.501 20.0909C250.297 20.4081 249.999 20.6603 249.606 20.8473C249.215 21.0343 248.741 21.1278 248.182 21.1278C247.661 21.1278 247.21 21.0438 246.829 20.8757C246.45 20.7076 246.152 20.4732 245.934 20.1726C245.719 19.8719 245.597 19.5227 245.568 19.125H246.477C246.501 19.3996 246.593 19.6269 246.754 19.8068C246.918 19.9844 247.124 20.117 247.372 20.2045C247.623 20.2898 247.893 20.3324 248.182 20.3324C248.518 20.3324 248.82 20.2779 249.087 20.169C249.355 20.0578 249.567 19.9039 249.723 19.7074C249.879 19.5085 249.957 19.2765 249.957 19.0114C249.957 18.7699 249.89 18.5734 249.755 18.4219C249.62 18.2704 249.442 18.1473 249.222 18.0526C249.002 17.9579 248.764 17.875 248.509 17.804L247.614 17.5483C247.045 17.3849 246.596 17.1518 246.264 16.8487C245.933 16.5457 245.767 16.1491 245.767 15.6591C245.767 15.2519 245.877 14.8968 246.097 14.5938C246.32 14.2884 246.618 14.0516 246.992 13.8835C247.369 13.7131 247.789 13.6278 248.253 13.6278C248.722 13.6278 249.138 13.7119 249.503 13.88C249.867 14.0457 250.156 14.273 250.369 14.5618C250.585 14.8506 250.698 15.1785 250.71 15.5455H249.858ZM258.394 17.3636C258.394 18.1307 258.256 18.7936 257.979 19.3523C257.702 19.911 257.322 20.3419 256.839 20.6449C256.356 20.9479 255.804 21.0994 255.184 21.0994C254.564 21.0994 254.012 20.9479 253.529 20.6449C253.046 20.3419 252.666 19.911 252.389 19.3523C252.112 18.7936 251.974 18.1307 251.974 17.3636C251.974 16.5966 252.112 15.9337 252.389 15.375C252.666 14.8163 253.046 14.3854 253.529 14.0824C254.012 13.7794 254.564 13.6278 255.184 13.6278C255.804 13.6278 256.356 13.7794 256.839 14.0824C257.322 14.3854 257.702 14.8163 257.979 15.375C258.256 15.9337 258.394 16.5966 258.394 17.3636ZM257.542 17.3636C257.542 16.7339 257.436 16.2024 257.226 15.7692C257.017 15.3359 256.734 15.008 256.377 14.7855C256.022 14.563 255.624 14.4517 255.184 14.4517C254.743 14.4517 254.345 14.563 253.987 14.7855C253.632 15.008 253.349 15.3359 253.138 15.7692C252.93 16.2024 252.826 16.7339 252.826 17.3636C252.826 17.9934 252.93 18.5249 253.138 18.9581C253.349 19.3913 253.632 19.7192 253.987 19.9418C254.345 20.1643 254.743 20.2756 255.184 20.2756C255.624 20.2756 256.022 20.1643 256.377 19.9418C256.734 19.7192 257.017 19.3913 257.226 18.9581C257.436 18.5249 257.542 17.9934 257.542 17.3636ZM259.747 21V20.3608L262.148 17.733C262.429 17.4252 262.661 17.1577 262.844 16.9304C263.026 16.7008 263.161 16.4853 263.248 16.2841C263.338 16.0805 263.383 15.8674 263.383 15.6449C263.383 15.3892 263.322 15.1679 263.199 14.9808C263.078 14.7938 262.912 14.6494 262.702 14.5476C262.491 14.4458 262.254 14.3949 261.991 14.3949C261.712 14.3949 261.468 14.4529 261.26 14.5689C261.054 14.6825 260.894 14.8423 260.78 15.0483C260.669 15.2543 260.613 15.4957 260.613 15.7727H259.775C259.775 15.3466 259.874 14.9725 260.07 14.6506C260.267 14.3286 260.534 14.0777 260.873 13.8977C261.214 13.7178 261.596 13.6278 262.02 13.6278C262.446 13.6278 262.823 13.7178 263.153 13.8977C263.482 14.0777 263.74 14.3203 263.927 14.6257C264.114 14.9311 264.207 15.2708 264.207 15.6449C264.207 15.9124 264.159 16.174 264.062 16.4297C263.967 16.683 263.801 16.9659 263.564 17.2784C263.33 17.5885 263.005 17.9673 262.588 18.4148L260.954 20.1619V20.2188H264.335V21H259.747Z" fill="black"/>
</g>
<g filter="url(#filter8_d_10_80)">
<circle cx="207" cy="182" r="15.5" fill="#AAE4EC" stroke="black"/>
<path d="M207.017 182.364C207.017 183.131 206.879 183.794 206.602 184.352C206.325 184.911 205.945 185.342 205.462 185.645C204.979 185.948 204.427 186.099 203.807 186.099C203.187 186.099 202.635 185.948 202.152 185.645C201.669 185.342 201.289 184.911 201.012 184.352C200.735 183.794 200.597 183.131 200.597 182.364C200.597 181.597 200.735 180.934 201.012 180.375C201.289 179.816 201.669 179.385 202.152 179.082C202.635 178.779 203.187 178.628 203.807 178.628C204.427 178.628 204.979 178.779 205.462 179.082C205.945 179.385 206.325 179.816 206.602 180.375C206.879 180.934 207.017 181.597 207.017 182.364ZM206.165 182.364C206.165 181.734 206.059 181.202 205.849 180.769C205.64 180.336 205.357 180.008 205 179.786C204.645 179.563 204.247 179.452 203.807 179.452C203.366 179.452 202.968 179.563 202.61 179.786C202.255 180.008 201.972 180.336 201.761 180.769C201.553 181.202 201.449 181.734 201.449 182.364C201.449 182.993 201.553 183.525 201.761 183.958C201.972 184.391 202.255 184.719 202.61 184.942C202.968 185.164 203.366 185.276 203.807 185.276C204.247 185.276 204.645 185.164 205 184.942C205.357 184.719 205.64 184.391 205.849 183.958C206.059 183.525 206.165 182.993 206.165 182.364ZM210.827 186.099C210.359 186.099 209.941 186.019 209.574 185.858C209.209 185.697 208.919 185.473 208.704 185.187C208.491 184.898 208.375 184.563 208.356 184.182H209.251C209.27 184.416 209.35 184.619 209.492 184.789C209.634 184.957 209.82 185.087 210.05 185.18C210.279 185.272 210.534 185.318 210.813 185.318C211.126 185.318 211.403 185.264 211.644 185.155C211.886 185.046 212.075 184.894 212.212 184.7C212.35 184.506 212.418 184.281 212.418 184.026C212.418 183.758 212.352 183.522 212.219 183.319C212.087 183.113 211.893 182.952 211.637 182.836C211.381 182.72 211.069 182.662 210.7 182.662H210.117V181.881H210.7C210.988 181.881 211.242 181.829 211.46 181.724C211.68 181.62 211.851 181.473 211.974 181.284C212.1 181.095 212.163 180.872 212.163 180.616C212.163 180.37 212.108 180.156 211.999 179.974C211.89 179.791 211.737 179.649 211.538 179.548C211.341 179.446 211.109 179.395 210.842 179.395C210.591 179.395 210.354 179.441 210.131 179.533C209.911 179.623 209.731 179.755 209.592 179.928C209.452 180.098 209.376 180.304 209.364 180.545H208.512C208.526 180.164 208.641 179.83 208.857 179.544C209.072 179.255 209.354 179.03 209.702 178.869C210.052 178.708 210.437 178.628 210.856 178.628C211.306 178.628 211.692 178.719 212.013 178.901C212.335 179.081 212.583 179.319 212.756 179.615C212.929 179.911 213.015 180.231 213.015 180.574C213.015 180.983 212.907 181.333 212.692 181.621C212.479 181.91 212.189 182.11 211.822 182.222V182.278C212.281 182.354 212.64 182.549 212.898 182.864C213.156 183.177 213.285 183.564 213.285 184.026C213.285 184.421 213.177 184.776 212.962 185.091C212.749 185.403 212.457 185.65 212.088 185.83C211.719 186.009 211.299 186.099 210.827 186.099Z" fill="black"/>
</g>
<g filter="url(#filter9_d_10_80)">
<rect x="300.5" y="100.5" width="39" height="18" rx="4.5" fill="#EACFE2" stroke="black"/>
<path d="M305.881 114V106.727H308.338C308.909 106.727 309.375 106.83 309.737 107.036C310.102 107.24 310.372 107.516 310.547 107.864C310.722 108.212 310.81 108.6 310.81 109.028C310.81 109.457 310.722 109.846 310.547 110.197C310.374 110.547 310.107 110.826 309.744 111.035C309.382 111.241 308.918 111.344 308.352 111.344H306.591V110.562H308.324C308.714 110.562 309.028 110.495 309.265 110.36C309.502 110.225 309.673 110.043 309.78 109.813C309.889 109.581 309.943 109.32 309.943 109.028C309.943 108.737 309.889 108.477 309.78 108.247C309.673 108.018 309.5 107.838 309.261 107.707C309.022 107.575 308.705 107.509 308.31 107.509H306.761V114H305.881ZM312.228 106.727H313.279L315.751 112.764H315.836L318.308 106.727H319.359V114H318.535V108.474H318.464L316.191 114H315.396L313.123 108.474H313.052V114H312.228V106.727ZM320.997 114V113.361L323.398 110.733C323.679 110.425 323.911 110.158 324.094 109.93C324.276 109.701 324.411 109.485 324.498 109.284C324.588 109.08 324.633 108.867 324.633 108.645C324.633 108.389 324.572 108.168 324.449 107.981C324.328 107.794 324.162 107.649 323.952 107.548C323.741 107.446 323.504 107.395 323.241 107.395C322.962 107.395 322.718 107.453 322.51 107.569C322.304 107.683 322.144 107.842 322.03 108.048C321.919 108.254 321.863 108.496 321.863 108.773H321.025C321.025 108.347 321.124 107.973 321.32 107.651C321.517 107.329 321.784 107.078 322.123 106.898C322.464 106.718 322.846 106.628 323.27 106.628C323.696 106.628 324.073 106.718 324.403 106.898C324.732 107.078 324.99 107.32 325.177 107.626C325.364 107.931 325.457 108.271 325.457 108.645C325.457 108.912 325.409 109.174 325.312 109.43C325.217 109.683 325.051 109.966 324.814 110.278C324.58 110.589 324.255 110.967 323.838 111.415L322.204 113.162V113.219H325.585V114H320.997ZM327.677 114.057C327.501 114.057 327.351 113.994 327.226 113.869C327.1 113.743 327.037 113.593 327.037 113.418C327.037 113.242 327.1 113.092 327.226 112.967C327.351 112.841 327.501 112.778 327.677 112.778C327.852 112.778 328.002 112.841 328.128 112.967C328.253 113.092 328.316 113.242 328.316 113.418C328.316 113.534 328.286 113.64 328.227 113.737C328.17 113.834 328.093 113.912 327.996 113.972C327.902 114.028 327.795 114.057 327.677 114.057ZM331.932 114.099C331.515 114.099 331.14 114.017 330.806 113.851C330.472 113.685 330.205 113.458 330.004 113.169C329.802 112.88 329.692 112.551 329.673 112.182H330.526C330.559 112.511 330.708 112.783 330.973 112.999C331.241 113.212 331.56 113.318 331.932 113.318C332.23 113.318 332.495 113.248 332.727 113.109C332.962 112.969 333.145 112.777 333.278 112.533C333.413 112.287 333.48 112.009 333.48 111.699C333.48 111.382 333.41 111.099 333.271 110.85C333.133 110.599 332.944 110.402 332.702 110.257C332.461 110.113 332.185 110.039 331.875 110.037C331.652 110.035 331.424 110.069 331.19 110.14C330.955 110.209 330.762 110.297 330.611 110.406L329.787 110.307L330.227 106.727H334.006V107.509H330.966L330.71 109.653H330.753C330.902 109.535 331.089 109.437 331.314 109.359C331.539 109.281 331.773 109.241 332.017 109.241C332.462 109.241 332.859 109.348 333.207 109.561C333.557 109.772 333.832 110.061 334.031 110.428C334.232 110.795 334.332 111.214 334.332 111.685C334.332 112.149 334.228 112.563 334.02 112.928C333.814 113.29 333.53 113.576 333.168 113.787C332.805 113.995 332.393 114.099 331.932 114.099Z" fill="black"/>
</g>
<g filter="url(#filter10_d_10_80)">
<rect x="20.5" y="2.5" width="40" height="18" rx="4.5" fill="#CDEFCC" stroke="black"/>
<path d="M27.8807 16V8.72727H30.3381C30.9086 8.72727 31.375 8.83026 31.7372 9.03622C32.1018 9.23982 32.3717 9.51562 32.5469 9.86364C32.7221 10.2116 32.8097 10.5999 32.8097 11.0284C32.8097 11.4569 32.7221 11.8464 32.5469 12.1967C32.3741 12.5471 32.1065 12.8265 31.7443 13.0348C31.3821 13.2408 30.9181 13.3438 30.3523 13.3438H28.5909V12.5625H30.3239C30.7145 12.5625 31.0282 12.495 31.2649 12.3601C31.5017 12.2251 31.6733 12.0429 31.7798 11.8132C31.8887 11.5812 31.9432 11.3196 31.9432 11.0284C31.9432 10.7372 31.8887 10.4768 31.7798 10.2472C31.6733 10.0175 31.5005 9.83759 31.2614 9.70739C31.0223 9.57481 30.705 9.50852 30.3097 9.50852H28.7614V16H27.8807ZM34.2283 8.72727H35.2795L37.7511 14.7642H37.8363L40.3079 8.72727H41.359V16H40.5352V10.4744H40.4641L38.1914 16H37.396L35.1232 10.4744H35.0522V16H34.2283V8.72727ZM45.5538 8.72727V16H44.6731V9.65057H44.6305L42.8549 10.8295V9.93466L44.6731 8.72727H45.5538ZM50.0176 16.0994C49.4825 16.0994 49.0268 15.9538 48.6504 15.6626C48.274 15.3691 47.9863 14.9441 47.7875 14.3878C47.5886 13.8291 47.4892 13.1544 47.4892 12.3636C47.4892 11.5777 47.5886 10.9065 47.7875 10.3501C47.9887 9.79143 48.2775 9.36529 48.6539 9.07173C49.0327 8.7758 49.4873 8.62784 50.0176 8.62784C50.5479 8.62784 51.0012 8.7758 51.3777 9.07173C51.7565 9.36529 52.0453 9.79143 52.2441 10.3501C52.4454 10.9065 52.546 11.5777 52.546 12.3636C52.546 13.1544 52.4466 13.8291 52.2477 14.3878C52.0488 14.9441 51.7612 15.3691 51.3848 15.6626C51.0083 15.9538 50.5526 16.0994 50.0176 16.0994ZM50.0176 15.3182C50.5479 15.3182 50.9598 15.0625 51.2534 14.5511C51.5469 14.0398 51.6937 13.3106 51.6937 12.3636C51.6937 11.7339 51.6262 11.1977 51.4913 10.755C51.3587 10.3123 51.167 9.97491 50.916 9.7429C50.6674 9.51089 50.368 9.39489 50.0176 9.39489C49.492 9.39489 49.0813 9.65412 48.7853 10.1726C48.4894 10.6887 48.3414 11.419 48.3414 12.3636C48.3414 12.9934 48.4077 13.5284 48.5403 13.9688C48.6729 14.4091 48.8635 14.7441 49.112 14.9737C49.363 15.2034 49.6648 15.3182 50.0176 15.3182Z" fill="black"/>
</g>
<g filter="url(#filter11_d_10_80)">
<circle cx="164.5" cy="211.5" r="8.5" fill="#FBB8B8"/>
<circle cx="164.5" cy="211.5" r="8" stroke="#434343"/>
</g>
<g filter="url(#filter12_d_10_80)">
<circle cx="202.5" cy="56.5" r="11.5" fill="#FBB8B8"/>
<circle cx="202.5" cy="56.5" r="11" stroke="#434343"/>
</g>
<g filter="url(#filter13_d_10_80)">
<circle cx="85" cy="109" r="5" fill="#FBB8B8"/>
<circle cx="85" cy="109" r="4.5" stroke="#434343"/>
</g>
<g filter="url(#filter14_d_10_80)">
<circle cx="72.5" cy="19.5" r="3.5" fill="#FBB8B8"/>
<circle cx="72.5" cy="19.5" r="3" stroke="#434343"/>
</g>
<g filter="url(#filter15_d_10_80)">
<circle cx="158.5" cy="71.5" r="2.5" fill="#FBB8B8"/>
<circle cx="158.5" cy="71.5" r="2" stroke="#434343"/>
</g>
<g filter="url(#filter16_d_10_80)">
<circle cx="322.5" cy="2.5" r="2.5" fill="#FBB8B8"/>
<circle cx="322.5" cy="2.5" r="2" stroke="#434343"/>
</g>
<defs>
<filter id="filter0_d_10_80" x="111" y="88" width="146" height="58" filterUnits="userSpaceOnUse" color-interpolation-filters="sRGB">
<feFlood flood-opacity="0" result="BackgroundImageFix"/>
<feColorMatrix in="SourceAlpha" type="matrix" values="0 0 0 0 0 0 0 0 0 0 0 0 0 0 0 0 0 0 127 0" result="hardAlpha"/>
<feOffset dx="7" dy="4"/>
<feGaussianBlur stdDeviation="5"/>
<feComposite in2="hardAlpha" operator="out"/>
<feColorMatrix type="matrix" values="0 0 0 0 0 0 0 0 0 0 0 0 0 0 0 0 0 0 0.35 0"/>
<feBlend mode="normal" in2="BackgroundImageFix" result="effect1_dropShadow_10_80"/>
<feBlend mode="normal" in="SourceGraphic" in2="effect1_dropShadow_10_80" result="shape"/>
</filter>
<filter id="filter1_d_10_80" x="251" y="37" width="146" height="58" filterUnits="userSpaceOnUse" color-interpolation-filters="sRGB">
<feFlood flood-opacity="0" result="BackgroundImageFix"/>
<feColorMatrix in="SourceAlpha" type="matrix" values="0 0 0 0 0 0 0 0 0 0 0 0 0 0 0 0 0 0 127 0" result="hardAlpha"/>
<feOffset dx="7" dy="4"/>
<feGaussianBlur stdDeviation="5"/>
<feComposite in2="hardAlpha" operator="out"/>
<feColorMatrix type="matrix" values="0 0 0 0 0 0 0 0 0 0 0 0 0 0 0 0 0 0 0.35 0"/>
<feBlend mode="normal" in2="BackgroundImageFix" result="effect1_dropShadow_10_80"/>
<feBlend mode="normal" in="SourceGraphic" in2="effect1_dropShadow_10_80" result="shape"/>
</filter>
<filter id="filter2_d_10_80" x="233" y="129" width="146" height="58" filterUnits="userSpaceOnUse" color-interpolation-filters="sRGB">
<feFlood flood-opacity="0" result="BackgroundImageFix"/>
<feColorMatrix in="SourceAlpha" type="matrix" values="0 0 0 0 0 0 0 0 0 0 0 0 0 0 0 0 0 0 127 0" result="hardAlpha"/>
<feOffset dx="7" dy="4"/>
<feGaussianBlur stdDeviation="5"/>
<feComposite in2="hardAlpha" operator="out"/>
<feColorMatrix type="matrix" values="0 0 0 0 0 0 0 0 0 0 0 0 0 0 0 0 0 0 0.35 0"/>
<feBlend mode="normal" in2="BackgroundImageFix" result="effect1_dropShadow_10_80"/>
<feBlend mode="normal" in="SourceGraphic" in2="effect1_dropShadow_10_80" result="shape"/>
</filter>
<filter id="filter3_d_10_80" x="30" y="148" width="146" height="58" filterUnits="userSpaceOnUse" color-interpolation-filters="sRGB">
<feFlood flood-opacity="0" result="BackgroundImageFix"/>
<feColorMatrix in="SourceAlpha" type="matrix" values="0 0 0 0 0 0 0 0 0 0 0 0 0 0 0 0 0 0 127 0" result="hardAlpha"/>
<feOffset dx="7" dy="4"/>
<feGaussianBlur stdDeviation="5"/>
<feComposite in2="hardAlpha" operator="out"/>
<feColorMatrix type="matrix" values="0 0 0 0 0 0 0 0 0 0 0 0 0 0 0 0 0 0 0.35 0"/>
<feBlend mode="normal" in2="BackgroundImageFix" result="effect1_dropShadow_10_80"/>
<feBlend mode="normal" in="SourceGraphic" in2="effect1_dropShadow_10_80" result="shape"/>
</filter>
<filter id="filter4_d_10_80" x="0" y="28" width="146" height="58" filterUnits="userSpaceOnUse" color-interpolation-filters="sRGB">
<feFlood flood-opacity="0" result="BackgroundImageFix"/>
<feColorMatrix in="SourceAlpha" type="matrix" values="0 0 0 0 0 0 0 0 0 0 0 0 0 0 0 0 0 0 127 0" result="hardAlpha"/>
<feOffset dx="7" dy="4"/>
<feGaussianBlur stdDeviation="5"/>
<feComposite in2="hardAlpha" operator="out"/>
<feColorMatrix type="matrix" values="0 0 0 0 0 0 0 0 0 0 0 0 0 0 0 0 0 0 0.35 0"/>
<feBlend mode="normal" in2="BackgroundImageFix" result="effect1_dropShadow_10_80"/>
<feBlend mode="normal" in="SourceGraphic" in2="effect1_dropShadow_10_80" result="shape"/>
</filter>
<filter id="filter5_d_10_80" x="21" y="104" width="40" height="40" filterUnits="userSpaceOnUse" color-interpolation-filters="sRGB">
<feFlood flood-opacity="0" result="BackgroundImageFix"/>
<feColorMatrix in="SourceAlpha" type="matrix" values="0 0 0 0 0 0 0 0 0 0 0 0 0 0 0 0 0 0 127 0" result="hardAlpha"/>
<feOffset dy="4"/>
<feGaussianBlur stdDeviation="2"/>
<feComposite in2="hardAlpha" operator="out"/>
<feColorMatrix type="matrix" values="0 0 0 0 0 0 0 0 0 0 0 0 0 0 0 0 0 0 0.25 0"/>
<feBlend mode="normal" in2="BackgroundImageFix" result="effect1_dropShadow_10_80"/>
<feBlend mode="normal" in="SourceGraphic" in2="effect1_dropShadow_10_80" result="shape"/>
</filter>
<filter id="filter6_d_10_80" x="140" y="7" width="40" height="40" filterUnits="userSpaceOnUse" color-interpolation-filters="sRGB">
<feFlood flood-opacity="0" result="BackgroundImageFix"/>
<feColorMatrix in="SourceAlpha" type="matrix" values="0 0 0 0 0 0 0 0 0 0 0 0 0 0 0 0 0 0 127 0" result="hardAlpha"/>
<feOffset dy="4"/>
<feGaussianBlur stdDeviation="2"/>
<feComposite in2="hardAlpha" operator="out"/>
<feColorMatrix type="matrix" values="0 0 0 0 0 0 0 0 0 0 0 0 0 0 0 0 0 0 0.25 0"/>
<feBlend mode="normal" in2="BackgroundImageFix" result="effect1_dropShadow_10_80"/>
<feBlend mode="normal" in="SourceGraphic" in2="effect1_dropShadow_10_80" result="shape"/>
</filter>
<filter id="filter7_d_10_80" x="236" y="1" width="40" height="40" filterUnits="userSpaceOnUse" color-interpolation-filters="sRGB">
<feFlood flood-opacity="0" result="BackgroundImageFix"/>
<feColorMatrix in="SourceAlpha" type="matrix" values="0 0 0 0 0 0 0 0 0 0 0 0 0 0 0 0 0 0 127 0" result="hardAlpha"/>
<feOffset dy="4"/>
<feGaussianBlur stdDeviation="2"/>
<feComposite in2="hardAlpha" operator="out"/>
<feColorMatrix type="matrix" values="0 0 0 0 0 0 0 0 0 0 0 0 0 0 0 0 0 0 0.25 0"/>
<feBlend mode="normal" in2="BackgroundImageFix" result="effect1_dropShadow_10_80"/>
<feBlend mode="normal" in="SourceGraphic" in2="effect1_dropShadow_10_80" result="shape"/>
</filter>
<filter id="filter8_d_10_80" x="187" y="166" width="40" height="40" filterUnits="userSpaceOnUse" color-interpolation-filters="sRGB">
<feFlood flood-opacity="0" result="BackgroundImageFix"/>
<feColorMatrix in="SourceAlpha" type="matrix" values="0 0 0 0 0 0 0 0 0 0 0 0 0 0 0 0 0 0 127 0" result="hardAlpha"/>
<feOffset dy="4"/>
<feGaussianBlur stdDeviation="2"/>
<feComposite in2="hardAlpha" operator="out"/>
<feColorMatrix type="matrix" values="0 0 0 0 0 0 0 0 0 0 0 0 0 0 0 0 0 0 0.25 0"/>
<feBlend mode="normal" in2="BackgroundImageFix" result="effect1_dropShadow_10_80"/>
<feBlend mode="normal" in="SourceGraphic" in2="effect1_dropShadow_10_80" result="shape"/>
</filter>
<filter id="filter9_d_10_80" x="296" y="100" width="48" height="27" filterUnits="userSpaceOnUse" color-interpolation-filters="sRGB">
<feFlood flood-opacity="0" result="BackgroundImageFix"/>
<feColorMatrix in="SourceAlpha" type="matrix" values="0 0 0 0 0 0 0 0 0 0 0 0 0 0 0 0 0 0 127 0" result="hardAlpha"/>
<feOffset dy="4"/>
<feGaussianBlur stdDeviation="2"/>
<feComposite in2="hardAlpha" operator="out"/>
<feColorMatrix type="matrix" values="0 0 0 0 0 0 0 0 0 0 0 0 0 0 0 0 0 0 0.25 0"/>
<feBlend mode="normal" in2="BackgroundImageFix" result="effect1_dropShadow_10_80"/>
<feBlend mode="normal" in="SourceGraphic" in2="effect1_dropShadow_10_80" result="shape"/>
</filter>
<filter id="filter10_d_10_80" x="16" y="2" width="49" height="27" filterUnits="userSpaceOnUse" color-interpolation-filters="sRGB">
<feFlood flood-opacity="0" result="BackgroundImageFix"/>
<feColorMatrix in="SourceAlpha" type="matrix" values="0 0 0 0 0 0 0 0 0 0 0 0 0 0 0 0 0 0 127 0" result="hardAlpha"/>
<feOffset dy="4"/>
<feGaussianBlur stdDeviation="2"/>
<feComposite in2="hardAlpha" operator="out"/>
<feColorMatrix type="matrix" values="0 0 0 0 0 0 0 0 0 0 0 0 0 0 0 0 0 0 0.25 0"/>
<feBlend mode="normal" in2="BackgroundImageFix" result="effect1_dropShadow_10_80"/>
<feBlend mode="normal" in="SourceGraphic" in2="effect1_dropShadow_10_80" result="shape"/>
</filter>
<filter id="filter11_d_10_80" x="152" y="203" width="25" height="25" filterUnits="userSpaceOnUse" color-interpolation-filters="sRGB">
<feFlood flood-opacity="0" result="BackgroundImageFix"/>
<feColorMatrix in="SourceAlpha" type="matrix" values="0 0 0 0 0 0 0 0 0 0 0 0 0 0 0 0 0 0 127 0" result="hardAlpha"/>
<feOffset dy="4"/>
<feGaussianBlur stdDeviation="2"/>
<feComposite in2="hardAlpha" operator="out"/>
<feColorMatrix type="matrix" values="0 0 0 0 0 0 0 0 0 0 0 0 0 0 0 0 0 0 0.25 0"/>
<feBlend mode="normal" in2="BackgroundImageFix" result="effect1_dropShadow_10_80"/>
<feBlend mode="normal" in="SourceGraphic" in2="effect1_dropShadow_10_80" result="shape"/>
</filter>
<filter id="filter12_d_10_80" x="187" y="45" width="31" height="31" filterUnits="userSpaceOnUse" color-interpolation-filters="sRGB">
<feFlood flood-opacity="0" result="BackgroundImageFix"/>
<feColorMatrix in="SourceAlpha" type="matrix" values="0 0 0 0 0 0 0 0 0 0 0 0 0 0 0 0 0 0 127 0" result="hardAlpha"/>
<feOffset dy="4"/>
<feGaussianBlur stdDeviation="2"/>
<feComposite in2="hardAlpha" operator="out"/>
<feColorMatrix type="matrix" values="0 0 0 0 0 0 0 0 0 0 0 0 0 0 0 0 0 0 0.25 0"/>
<feBlend mode="normal" in2="BackgroundImageFix" result="effect1_dropShadow_10_80"/>
<feBlend mode="normal" in="SourceGraphic" in2="effect1_dropShadow_10_80" result="shape"/>
</filter>
<filter id="filter13_d_10_80" x="76" y="104" width="18" height="18" filterUnits="userSpaceOnUse" color-interpolation-filters="sRGB">
<feFlood flood-opacity="0" result="BackgroundImageFix"/>
<feColorMatrix in="SourceAlpha" type="matrix" values="0 0 0 0 0 0 0 0 0 0 0 0 0 0 0 0 0 0 127 0" result="hardAlpha"/>
<feOffset dy="4"/>
<feGaussianBlur stdDeviation="2"/>
<feComposite in2="hardAlpha" operator="out"/>
<feColorMatrix type="matrix" values="0 0 0 0 0 0 0 0 0 0 0 0 0 0 0 0 0 0 0.25 0"/>
<feBlend mode="normal" in2="BackgroundImageFix" result="effect1_dropShadow_10_80"/>
<feBlend mode="normal" in="SourceGraphic" in2="effect1_dropShadow_10_80" result="shape"/>
</filter>
<filter id="filter14_d_10_80" x="65" y="16" width="15" height="15" filterUnits="userSpaceOnUse" color-interpolation-filters="sRGB">
<feFlood flood-opacity="0" result="BackgroundImageFix"/>
<feColorMatrix in="SourceAlpha" type="matrix" values="0 0 0 0 0 0 0 0 0 0 0 0 0 0 0 0 0 0 127 0" result="hardAlpha"/>
<feOffset dy="4"/>
<feGaussianBlur stdDeviation="2"/>
<feComposite in2="hardAlpha" operator="out"/>
<feColorMatrix type="matrix" values="0 0 0 0 0 0 0 0 0 0 0 0 0 0 0 0 0 0 0.25 0"/>
<feBlend mode="normal" in2="BackgroundImageFix" result="effect1_dropShadow_10_80"/>
<feBlend mode="normal" in="SourceGraphic" in2="effect1_dropShadow_10_80" result="shape"/>
</filter>
<filter id="filter15_d_10_80" x="152" y="69" width="13" height="13" filterUnits="userSpaceOnUse" color-interpolation-filters="sRGB">
<feFlood flood-opacity="0" result="BackgroundImageFix"/>
<feColorMatrix in="SourceAlpha" type="matrix" values="0 0 0 0 0 0 0 0 0 0 0 0 0 0 0 0 0 0 127 0" result="hardAlpha"/>
<feOffset dy="4"/>
<feGaussianBlur stdDeviation="2"/>
<feComposite in2="hardAlpha" operator="out"/>
<feColorMatrix type="matrix" values="0 0 0 0 0 0 0 0 0 0 0 0 0 0 0 0 0 0 0.25 0"/>
<feBlend mode="normal" in2="BackgroundImageFix" result="effect1_dropShadow_10_80"/>
<feBlend mode="normal" in="SourceGraphic" in2="effect1_dropShadow_10_80" result="shape"/>
</filter>
<filter id="filter16_d_10_80" x="316" y="0" width="13" height="13" filterUnits="userSpaceOnUse" color-interpolation-filters="sRGB">
<feFlood flood-opacity="0" result="BackgroundImageFix"/>
<feColorMatrix in="SourceAlpha" type="matrix" values="0 0 0 0 0 0 0 0 0 0 0 0 0 0 0 0 0 0 127 0" result="hardAlpha"/>
<feOffset dy="4"/>
<feGaussianBlur stdDeviation="2"/>
<feComposite in2="hardAlpha" operator="out"/>
<feColorMatrix type="matrix" values="0 0 0 0 0 0 0 0 0 0 0 0 0 0 0 0 0 0 0.25 0"/>
<feBlend mode="normal" in2="BackgroundImageFix" result="effect1_dropShadow_10_80"/>
<feBlend mode="normal" in="SourceGraphic" in2="effect1_dropShadow_10_80" result="shape"/>
</filter>
</defs>
</svg>
