<svg width="30" height="17" viewBox="0 0 30 17" fill="none" xmlns="http://www.w3.org/2000/svg">
<path d="M2.36922e-10 12.7918C0.0382185 12.7272 0.105039 12.6934 0.110515 12.6516C0.29673 11.2284 0.673731 9.85762 1.32965 8.58107C1.76927 7.72547 2.23291 6.87277 2.7803 6.08438C3.46695 5.09541 4.27131 4.19319 5.24213 3.45958C5.78137 3.05209 6.32335 2.64824 6.892 2.25301C8.2276 4.36163 9.53531 6.46001 10.843 8.55838C9.62933 9.38275 8.6644 10.4228 8.04991 11.7692C7.72874 12.4728 7.53026 13.2111 7.43741 13.976C7.37572 14.4842 7.00952 14.8386 6.49623 14.839C4.71245 14.8403 2.92854 14.8277 1.14498 14.8474C0.67159 14.8526 0.295327 14.7395 0.0135548 14.359C-5.75359e-08 13.8586 -5.73925e-08 13.3387 2.36922e-10 12.7918Z" fill="#FF6836"/>
<path d="M22.592 2.22328C23.63 2.87126 24.581 3.63243 25.4246 4.51495C26.366 5.4998 27.1603 6.59706 27.8076 7.80227C28.3923 8.891 28.8227 10.0369 29.1396 11.2254C29.2628 11.6873 29.3086 12.1696 29.3935 12.642C29.4027 12.693 29.4379 12.7394 29.4837 12.7764C29.5063 13.2847 29.5063 13.8046 29.5063 14.3514C29.3736 14.4835 29.252 14.6096 29.105 14.6876C28.9615 14.7638 28.7922 14.8324 28.6339 14.8332C26.7625 14.843 24.891 14.8402 23.0196 14.839C22.4829 14.8387 22.1355 14.4846 22.067 13.9537C21.8916 12.5933 21.4022 11.3576 20.5386 10.2795C20.0091 9.61862 19.4067 9.03983 18.6808 8.55797C19.5376 7.14839 20.398 5.77624 21.2538 4.40123C21.704 3.67783 22.1462 2.94943 22.592 2.22328Z" fill="#4ACA7B"/>
<path d="M10.8636 8.55845C9.5353 6.46001 8.2276 4.36164 6.90934 2.24603C8.05449 1.53424 9.26087 0.947797 10.5696 0.606775C11.2817 0.421235 12.0049 0.267033 12.7316 0.153152C13.2816 0.0669725 13.8452 0.0687607 14.4023 0.0270788C14.5035 0.0195093 14.6032 -0.00893431 14.7282 0.0028029C14.7528 2.50667 14.7527 4.98 14.7527 7.45333C13.8512 7.4319 12.9789 7.59087 12.147 7.92924C11.7126 8.10595 11.3042 8.3467 10.8636 8.55845Z" fill="#FCC100"/>
<path d="M14.7793 7.45748C14.7527 4.98001 14.7528 2.50668 14.7527 0.00694275C15.4857 0.0351525 16.2317 0.0230367 16.949 0.160488C17.9523 0.352736 18.9611 0.583136 19.9175 0.933704C20.8294 1.26796 21.6772 1.77726 22.5725 2.21644C22.1462 2.94942 21.704 3.67783 21.2537 4.40123C20.398 5.77624 19.5376 7.14839 18.6709 8.54015C18.1343 8.31051 17.6201 8.02336 17.0738 7.82401C16.3478 7.55905 15.5873 7.42311 14.7793 7.45748Z" fill="#FCA400"/>
<path d="M12.5055 15.7045C11.9071 14.8185 12.0437 13.4385 12.7501 12.6519C13.3411 11.9939 14.0829 11.7661 14.9197 11.7283C15.4547 11.7042 15.9901 11.6754 16.5254 11.6741C16.9645 11.6731 17.4048 11.6975 17.8426 11.7336C18.1523 11.7591 18.4013 11.908 18.5198 12.224C18.4198 12.279 18.337 12.3053 18.2633 12.3476C17.017 13.0631 15.7697 13.7769 14.5273 14.499C13.8489 14.8932 13.1791 15.3022 12.5055 15.7045Z" fill="#414952"/>
<path d="M12.5087 15.7243C13.1791 15.3022 13.8489 14.8932 14.5273 14.499C15.7697 13.7769 17.017 13.0631 18.2633 12.3477C18.337 12.3053 18.4199 12.279 18.5182 12.2437C18.7118 12.4869 18.7012 12.7444 18.5779 13.0019C18.0308 14.1443 17.441 15.2641 16.6076 16.2281C16.2699 16.6187 15.8137 16.8576 15.2974 16.9504C14.1917 17.1491 13.1257 16.753 12.5087 15.7243Z" fill="#23272B"/>
</svg>
