<svg width="1163" height="275" viewBox="0 0 1163 275" fill="none" xmlns="http://www.w3.org/2000/svg">
<mask id="mask0_21_107" style="mask-type:alpha" maskUnits="userSpaceOnUse" x="0" y="14" width="1138" height="235">
<path d="M1138 27.4286C1138 20.0122 1133.86 14 1128.75 14H9.25202C4.14226 14 -1.44243e-05 20.0122 -1.44243e-05 27.4286V235.571C-1.44243e-05 242.988 4.14226 249 9.25202 249H1128.75C1133.86 249 1138 242.988 1138 235.571V27.4286Z" fill="#05CBE7"/>
</mask>
<g mask="url(#mask0_21_107)">
<path d="M855.821 556.132C979.456 547.84 1089.87 509.235 1168.44 453.551C1247.02 397.86 1293.69 325.141 1290.02 248.607C1286.35 172.073 1233.03 106.06 1149.63 61.2339C1066.24 16.4117 952.84 -7.18152 829.205 1.1106C705.569 9.40273 595.154 48.007 516.582 103.692C438.003 159.382 391.337 232.101 395.007 308.635C398.678 385.169 451.996 451.182 535.396 496.009C618.788 540.831 732.186 564.424 855.821 556.132Z" stroke="#FF9797"/>
<path d="M867.586 527.355C973.438 520.255 1067.97 487.204 1135.23 439.533C1202.5 391.856 1242.44 329.612 1239.3 264.114C1236.16 198.615 1190.53 142.11 1119.13 103.734C1047.74 65.362 950.654 45.162 844.803 52.2614C738.952 59.3608 644.422 92.4121 577.157 140.083C509.885 187.76 469.949 250.004 473.09 315.503C476.231 381.001 521.862 437.507 593.261 475.882C664.651 514.254 761.735 534.454 867.586 527.355Z" stroke="#FF9797"/>
<path d="M964.95 552.145C1070.8 545.045 1165.33 511.994 1232.6 464.323C1299.87 416.646 1339.8 354.402 1336.66 288.903C1333.52 223.405 1287.89 166.9 1216.49 128.524C1145.1 90.1519 1048.02 69.9519 942.166 77.0513C836.315 84.1506 741.785 117.202 674.52 164.873C607.248 212.55 567.312 274.794 570.453 340.293C573.594 405.791 619.225 462.296 690.624 500.672C762.015 539.044 859.098 559.244 964.95 552.145Z" stroke="#FF9797"/>
</g>
</svg>
