<svg width="1178" height="276" viewBox="0 0 1178 276" fill="none" xmlns="http://www.w3.org/2000/svg">
<mask id="mask0_21_107" style="mask-type:alpha" maskUnits="userSpaceOnUse" x="15" y="0" width="1138" height="250">
<path d="M1153 14.2857C1153 6.39593 1148.86 0 1143.75 0H24.252C19.1423 0 15 6.39593 15 14.2857V235.714C15 243.604 19.1423 250 24.252 250H1143.75C1148.86 250 1153 243.604 1153 235.714V14.2857Z" fill="#05CBE7"/>
</mask>
<g mask="url(#mask0_21_107)">
<path d="M587.54 1091.23C787.882 1076.94 966.504 1003.35 1093.34 895.959C1220.19 788.565 1295.22 647.39 1288.48 497.889C1281.74 348.389 1194.5 218.792 1058.82 130.129C923.144 41.4655 739.054 -6.24151 538.712 8.05297C338.37 22.3475 159.747 95.9341 32.9065 203.328C-93.934 310.722 -168.969 451.898 -162.23 601.398C-155.49 750.898 -68.2497 880.495 67.4286 969.159C203.107 1057.82 387.197 1105.53 587.54 1091.23Z" stroke="#FF9797"/>
<path d="M606.317 1035.32C777.847 1023.08 930.777 960.079 1039.37 868.134C1147.97 776.189 1212.2 655.328 1206.43 527.346C1200.66 399.364 1125.98 288.415 1009.82 212.507C893.656 136.598 736.044 95.7518 564.515 107.99C392.986 120.229 240.056 183.233 131.461 275.178C22.8674 367.123 -41.3667 487.983 -35.5976 615.965C-29.8284 743.947 44.8553 854.896 161.016 930.805C277.176 1006.71 434.788 1047.56 606.317 1035.32Z" stroke="#FF9797"/>
</g>
</svg>
