<svg width="1240" height="277" viewBox="0 0 1240 277" fill="none" xmlns="http://www.w3.org/2000/svg">
<mask id="mask0_20_64" style="mask-type:alpha" maskUnits="userSpaceOnUse" x="15" y="14" width="1200" height="237">
<path d="M15 27.5429C15 20.0633 19.368 14 24.7561 14H1205.24C1210.63 14 1215 20.0633 1215 27.5429V237.457C1215 244.937 1210.63 251 1205.24 251H24.7561C19.3679 251 15 244.937 15 237.457V27.5429Z" fill="url(#paint0_linear_20_64)"/>
</mask>
<g mask="url(#mask0_20_64)">
<path d="M1190.28 14L1222.46 139.714L1342.07 86.1688L1262.58 189.387L1379.56 248.331L1248.26 251.327L1274.52 378.374L1190.28 278.893L1106.04 378.374L1132.3 251.327L1001 248.331L1117.98 189.387L1038.49 86.1688L1158.1 139.714L1190.28 14Z" fill="url(#paint1_linear_20_64)"/>
<path d="M216.86 26.2474L106.355 86.4282L182.474 196.643L68.6653 138.136L39.0568 270.18L7.64377 137.043L-105.397 191.484L-30.7591 83.9714L-142.11 19.8154L-17.6251 18.8863L-43.4367 -115.557L37.1555 -9.20254L116.32 -112.695L92.3319 20.8565L216.86 26.2474Z" fill="url(#paint2_linear_20_64)"/>
</g>
<defs>
<linearGradient id="paint0_linear_20_64" x1="615" y1="14" x2="615" y2="251" gradientUnits="userSpaceOnUse">
<stop stop-color="#A4CDD2" stop-opacity="0.56"/>
<stop offset="0.442708" stop-color="#9DD8E0" stop-opacity="0.557292"/>
<stop offset="0.9999" stop-color="#9DD8E0" stop-opacity="0.557292"/>
<stop offset="1" stop-color="white" stop-opacity="0"/>
</linearGradient>
<linearGradient id="paint1_linear_20_64" x1="1190.28" y1="14" x2="1190.28" y2="397.357" gradientUnits="userSpaceOnUse">
<stop stop-color="#4FB8C7"/>
<stop offset="1" stop-color="#548A92" stop-opacity="0"/>
</linearGradient>
<linearGradient id="paint2_linear_20_64" x1="216.86" y1="26.2474" x2="-142.909" y2="103.187" gradientUnits="userSpaceOnUse">
<stop stop-color="#4FB8C7"/>
<stop offset="1" stop-color="#548A92" stop-opacity="0"/>
</linearGradient>
</defs>
</svg>
