<svg width="1178" height="270" viewBox="0 0 1178 270" fill="none" xmlns="http://www.w3.org/2000/svg">
<mask id="mask0_21_98" style="mask-type:alpha" maskUnits="userSpaceOnUse" x="15" y="9" width="1138" height="235">
<path d="M15 22.4286C15 15.0122 19.1423 9 24.252 9H1143.75C1148.86 9 1153 15.0122 1153 22.4286V230.571C1153 237.988 1148.86 244 1143.75 244H24.252C19.1423 244 15 237.988 15 230.571V22.4286Z" fill="#05CBE7"/>
</mask>
<g mask="url(#mask0_21_98)">
<path d="M-3.74818 310.242C-75.8009 305.41 -131.032 232.376 -126.935 146.945C-122.839 61.5153 -60.979 -3.66578 11.0737 1.16674C83.1263 5.99926 138.358 79.0335 134.261 164.464C130.164 249.894 68.3045 315.075 -3.74818 310.242Z" stroke="#FF9797"/>
<path d="M-6.83645 294.427C-68.4812 290.293 -115.754 227.802 -112.247 154.681C-108.741 81.5592 -55.7969 25.7903 5.84787 29.9248C67.4926 34.0593 114.765 96.5496 111.259 169.671C107.752 242.793 54.8083 298.562 -6.83645 294.427Z" stroke="#FF9797"/>
<path d="M-35.7241 309.956C-97.3689 305.821 -144.642 243.331 -141.135 170.209C-137.628 97.0879 -84.6846 41.319 -23.0398 45.4534C38.6049 49.5879 85.8775 112.078 82.371 185.2C78.8644 258.321 25.9206 314.09 -35.7241 309.956Z" stroke="#FF9797"/>
<path d="M1321.69 243.972C1337.71 327.406 1293.49 410.267 1223.11 429.169C1152.72 448.071 1082.58 395.921 1066.56 312.487C1050.54 229.052 1094.76 146.191 1165.14 127.289C1235.53 108.387 1305.67 160.537 1321.69 243.972Z" stroke="#FF9797"/>
<path d="M1309.69 251.851C1323.4 323.263 1285.56 394.165 1225.34 410.338C1165.12 426.51 1105.09 381.892 1091.37 310.48C1077.66 239.068 1115.51 168.166 1175.73 151.994C1235.95 135.822 1295.98 180.44 1309.69 251.851Z" stroke="#FF9797"/>
<path d="M1330.29 280.394C1344 351.806 1306.16 422.708 1245.94 438.88C1185.72 455.052 1125.69 410.434 1111.98 339.022C1098.26 267.611 1136.11 196.709 1196.33 180.536C1256.55 164.364 1316.58 208.982 1330.29 280.394Z" stroke="#FF9797"/>
</g>
</svg>
