<svg width="1178" height="275" viewBox="0 0 1178 275" fill="none" xmlns="http://www.w3.org/2000/svg">
<mask id="mask0_21_98" style="mask-type:alpha" maskUnits="userSpaceOnUse" x="15" y="14" width="1138" height="235">
<path d="M15 27.4286C15 20.0122 19.1423 14 24.252 14H1143.75C1148.86 14 1153 20.0122 1153 27.4286V235.571C1153 242.988 1148.86 249 1143.75 249H24.252C19.1423 249 15 242.988 15 235.571V27.4286Z" fill="#05CBE7"/>
</mask>
<g mask="url(#mask0_21_98)">
<path d="M-39.4605 286.817C-111.513 281.984 -166.745 208.95 -162.648 123.52C-158.551 38.0899 -96.6914 -27.0912 -24.6387 -22.2586C47.414 -17.4261 102.645 55.6082 98.5485 141.038C94.4517 226.468 32.5922 291.649 -39.4605 286.817Z" stroke="#FF9797"/>
<path d="M-42.5488 271.002C-104.194 266.867 -151.466 204.377 -147.96 131.255C-144.453 58.1339 -91.5092 2.36496 -29.8645 6.49943C31.7803 10.6339 79.0529 73.1243 75.5463 146.246C72.0398 219.367 19.096 275.136 -42.5488 271.002Z" stroke="#FF9797"/>
<path d="M-71.4365 286.53C-133.081 282.396 -180.354 219.906 -176.847 146.784C-173.341 73.6625 -120.397 17.8936 -58.7522 22.0281C2.89259 26.1625 50.1652 88.6529 46.6586 161.774C43.1521 234.896 -9.79172 290.665 -71.4365 286.53Z" stroke="#FF9797"/>
<path d="M1298.27 89.9876C1314.29 173.422 1270.08 256.283 1199.69 275.185C1129.3 294.087 1059.16 241.937 1043.14 158.503C1027.12 75.0685 1071.34 -7.79277 1141.72 -26.695C1212.11 -45.5972 1282.25 6.55347 1298.27 89.9876Z" stroke="#FF9797"/>
<path d="M1286.27 97.8674C1299.98 169.279 1262.14 240.181 1201.92 256.354C1141.7 272.526 1081.67 227.908 1067.96 156.496C1054.24 85.0842 1092.09 14.1821 1152.31 -1.9901C1212.53 -18.1623 1272.56 26.4555 1286.27 97.8674Z" stroke="#FF9797"/>
<path d="M1306.87 126.41C1320.59 197.822 1282.74 268.724 1222.52 284.896C1162.3 301.068 1102.27 256.45 1088.56 185.038C1074.85 113.627 1112.69 42.7245 1172.91 26.5523C1233.13 10.3801 1293.16 54.998 1306.87 126.41Z" stroke="#FF9797"/>
</g>
</svg>
